<?xml version="1.0" standalone="no"?><!DOCTYPE svg PUBLIC "-//W3C//DTD SVG 1.1//EN" "http://www.w3.org/Graphics/SVG/1.1/DTD/svg11.dtd"><svg t="1609590349184" class="icon" viewBox="0 0 1024 1024" version="1.1" xmlns="http://www.w3.org/2000/svg" p-id="2107" xmlns:xlink="http://www.w3.org/1999/xlink" width="128" height="128"><defs><style type="text/css"></style></defs><path d="M764.373333 640a32 32 0 0 1-22.613333-54.613333l98.773333-98.986667A213.333333 213.333333 0 0 0 540.16 185.173333l-98.986667 98.986667a32 32 0 1 1-45.226666-45.226667l98.986666-98.986666a276.053333 276.053333 0 0 1 471.466667 195.413333 273.92 273.92 0 0 1-80.64 195.413333l-98.773333 98.986667a32.64 32.64 0 0 1-22.613334 10.24zM333.653333 968.32a277.333333 277.333333 0 0 1-195.413333-471.68l130.346667-130.346667a32 32 0 0 1 45.226666 45.226667L183.466667 541.866667a213.333333 213.333333 0 0 0 300.373333 300.373333l130.346667-130.346667a32.213333 32.213333 0 0 1 45.226666 0 31.786667 31.786667 0 0 1 0 45.226667L529.066667 887.466667a274.773333 274.773333 0 0 1-195.413334 80.853333z" p-id="2108"></path><path d="M376.533333 681.386667a32.213333 32.213333 0 0 1-22.613333-54.826667L622.933333 357.546667a32 32 0 0 1 45.226667 45.226666L399.146667 672a32.64 32.64 0 0 1-22.613334 9.386667z" p-id="2109"></path></svg>