<?xml version="1.0" standalone="no"?><!DOCTYPE svg PUBLIC "-//W3C//DTD SVG 1.1//EN" "http://www.w3.org/Graphics/SVG/1.1/DTD/svg11.dtd"><svg t="1609590287713" class="icon" viewBox="0 0 1024 1024" version="1.1" xmlns="http://www.w3.org/2000/svg" p-id="1372" xmlns:xlink="http://www.w3.org/1999/xlink" width="128" height="128"><defs><style type="text/css"></style></defs><path d="M114.802611 433.320751C172.641922 235.745761 299.581293 94.474525 531.450388 74.512285c15.867421-1.535557 38.388923 0 56.303753-3.582966 15.867421-3.071114 34.805957-14.331865 52.720788-22.009649 73.19488-30.199286 235.45206-82.920073 317.348429-17.914831 71.14747 56.303754 57.83931 193.480171 14.331864 282.542473 34.805957 70.635618 60.910424 168.911261 46.066708 278.959506-205.764627 8.701489-445.823358 1.023705-645.957609 3.582966 6.65408 106.465279 73.706732 187.849796 173.006079 199.110547 97.251938 11.260751 164.30459-43.507446 208.323888-104.929723h247.224663c-63.981538 183.754978-227.262423 326.561771-480.117462 308.135088-57.327458-4.094818-102.370461-20.985945-152.020134-39.92448-82.920073 45.043003-265.651346 112.095655-338.846226 17.914831-55.280049-71.659323-19.96224-201.157956 10.748898-286.125439 61.422277-171.470522 178.636454-341.405487 292.779519-438.145573 0.511852-3.071114 3.582966-3.582966 3.582966-7.165932-90.086006 46.066707-150.99643 122.332701-222.143901 188.361648zM982.904121 165.110143c-3.582966-123.356406-162.769033-111.07195-247.224664-61.422277 94.180824 37.365218 162.769033 100.834904 218.560935 177.61275 12.796308-38.900775 30.199286-71.14747 28.663729-116.190473zM372.776173 465.567446h391.567013c-11.260751-251.831334-379.282558-231.357242-391.567013 0z m-289.708405 442.240392c19.450388 111.583802 176.077193 78.825255 247.224664 29.175581-93.15712-52.208935-150.99643-139.735679-197.57499-239.035026-22.009649 53.23264-62.445981 136.152713-49.649674 209.859445z" p-id="1373"></path></svg>